<svg width="82" height="25" viewBox="0 0 82 25" fill="none" xmlns="http://www.w3.org/2000/svg">
<path fill-rule="evenodd" clip-rule="evenodd" d="M2.28122 15.4706C2.28122 17.7542 2.32149 19.898 2.40285 21.8981C5.35281 21.8981 8.16366 21.8326 10.8305 21.698L10.7512 23.7131H0C0.124881 20.956 0.187932 17.9157 0.187932 14.5899C0.187932 11.4605 0.124881 8.71233 0 6.34731H10.082L9.97668 8.33483C7.5303 8.22826 4.9383 8.17456 2.19986 8.17456C2.25397 9.55314 2.28122 11.4154 2.28122 13.7629C4.64502 13.7629 6.75254 13.7096 8.60258 13.6026V15.5906C6.62969 15.51 4.52176 15.4706 2.28122 15.4706ZM23.0945 16.5566C23.6986 17.3881 24.4889 19.2393 25.4697 22.1108C25.5832 22.4395 25.7756 22.9744 26.0412 23.7127H23.28C23.2096 23.5606 23.0799 23.1782 22.8936 22.5664C22.1744 19.7287 21.4113 17.8827 20.6058 17.0301C19.8012 16.1763 18.5243 15.75 16.7727 15.75C16.2378 15.75 15.8302 15.7626 15.5451 15.7898C15.5451 18.6617 15.5906 21.3025 15.6793 23.7127H13.1711C13.296 20.9559 13.3578 17.9153 13.3578 14.5898C13.3578 11.4601 13.296 8.71188 13.1711 6.34727H15.6793C15.5906 9.01493 15.5451 11.5667 15.5451 14.0016C15.9807 14.0297 16.3904 14.0427 16.7727 14.0427C18.2839 14.0427 19.5384 13.5448 20.533 12.5482C21.5296 11.5532 22.2533 9.83337 22.7073 7.3874C22.7866 6.94279 22.9143 6.59662 23.0945 6.34727H25.3887C25.2895 6.59662 25.126 7.08069 24.8945 7.8011C24.3258 9.83744 23.7031 11.3507 23.0286 12.3424C22.3525 13.3337 21.5073 14.074 20.4944 14.5634V14.7094C21.6216 15.1097 22.4904 15.7252 23.0945 16.5566ZM35.169 6C37.2847 6 39.14 6.78915 40.7374 8.36786C42.3332 9.94658 43.1305 12.0769 43.1305 14.7637C43.1305 17.6351 42.2913 19.9318 40.6089 21.6517C38.9297 23.3723 36.9869 24.2319 34.7822 24.2319C32.6669 24.2319 30.81 23.4431 29.2142 21.8652C27.618 20.2869 26.8207 18.1562 26.8207 15.4706C26.8207 12.5622 27.6599 10.2578 29.3399 8.55417C31.0219 6.8522 32.9627 6 35.169 6ZM39.0578 20.3646C40.1895 19.0222 40.7574 17.256 40.7574 15.0704C40.7574 12.7753 40.1545 10.9997 38.9505 9.74197C37.7468 8.48298 36.3548 7.8541 34.7822 7.8541C33.3243 7.8541 32.0263 8.51675 30.8893 9.84163C29.7483 11.1665 29.1796 12.936 29.1796 15.1493C29.1796 17.4533 29.7877 19.2338 31.0008 20.4911C32.2138 21.7501 33.6041 22.3786 35.169 22.3786C36.6269 22.3786 37.9233 21.7074 39.0578 20.3646ZM56.1686 6.34739H58.7028C58.5698 8.81898 58.5031 11.5668 58.5031 14.59C58.5031 17.9056 58.5698 20.9467 58.7028 23.7128H56.1686C56.256 20.6359 56.3032 17.8792 56.3032 15.4426H48.3145C48.3145 17.4179 48.356 20.173 48.4455 23.7128H45.9116C46.0369 20.4671 46.0979 17.4256 46.0979 14.59C46.0979 11.6197 46.0369 8.87268 45.9116 6.34739H48.4455C48.3385 8.89017 48.2868 11.3622 48.2868 13.7626H56.3284C56.3284 11.8328 56.2756 9.36122 56.1686 6.34739ZM62.6719 6.34739H65.2057C65.0808 8.77464 65.0198 11.5224 65.0198 14.59C65.0198 17.8084 65.0808 20.8491 65.2057 23.7128H62.6719C62.8049 20.8312 62.8708 17.7905 62.8708 14.59C62.8708 11.4415 62.8049 8.6941 62.6719 6.34739ZM81.4503 6.34735C81.3161 8.71237 81.2498 11.4606 81.2498 14.5899C81.2498 17.9158 81.3161 20.956 81.4503 23.7132H78.9706C79.0767 21.6415 79.1288 19.169 79.1288 16.2968C78.5431 16.2789 77.8694 16.2691 77.1153 16.2691C75.4881 16.2691 74.2735 16.6885 73.475 17.524C72.674 18.36 71.9321 20.1282 71.2471 22.8325C71.1327 23.3036 71.0249 23.5972 70.9261 23.7132H68.2987C68.4073 23.4463 68.5757 23.0005 68.8072 22.3789C69.6866 19.8012 70.403 18.1175 70.9607 17.3304C71.5159 16.5425 72.3181 15.9982 73.3676 15.6968V15.5499C70.7451 14.9987 69.4332 13.4741 69.4332 10.9749C69.4332 7.83698 71.6034 6.26721 75.9421 6.26721C76.5901 6.26721 77.3162 6.28064 78.1163 6.30626C78.9161 6.33474 79.4009 6.34735 79.5698 6.34735H81.4503ZM77.3565 14.5354C78.1115 14.5354 78.7025 14.5277 79.1288 14.5094C79.1288 12.5088 79.0767 10.4058 78.9706 8.20145C77.6091 8.08552 76.5364 8.02735 75.7538 8.02735C74.306 8.02735 73.272 8.24335 72.6533 8.67494C72.0354 9.10613 71.7271 9.81067 71.7271 10.7886C71.7271 13.2866 73.6027 14.5354 77.3565 14.5354Z" fill="url(#paint0_linear)"/>
<path fill-rule="evenodd" clip-rule="evenodd" d="M64.0243 0C62.9826 0 62.1401 0.842847 62.1401 1.8838C62.1401 2.92353 62.9826 3.76678 64.0243 3.76678C65.0645 3.76678 65.9069 2.92353 65.9069 1.8838C65.9069 0.842847 65.0645 0 64.0243 0Z" fill="#4ED0FF"/>
<defs>
<linearGradient id="paint0_linear" x1="179.035" y1="4.19421" x2="0" y2="4.19421" gradientUnits="userSpaceOnUse">
<stop stop-color="#4ED0FF"/>
<stop offset="1" stop-color="#009AD4"/>
</linearGradient>
</defs>
</svg>
