<svg width="143" height="40" viewBox="0 0 143 40" fill="none" xmlns="http://www.w3.org/2000/svg">
<path fill-rule="evenodd" clip-rule="evenodd" d="M62.9209 21.4706C62.9209 23.7542 62.9611 25.898 63.0425 27.8981C65.9925 27.8981 68.8033 27.8326 71.4702 27.698L71.3908 29.7131H60.6396C60.7645 26.956 60.8276 23.9157 60.8276 20.5899C60.8276 17.4605 60.7645 14.7123 60.6396 12.3473H70.7217L70.6163 14.3348C68.17 14.2283 65.578 14.1746 62.8395 14.1746C62.8936 15.5531 62.9209 17.4154 62.9209 19.7629C65.2847 19.7629 67.3922 19.7096 69.2422 19.6026V21.5906C67.2693 21.51 65.1614 21.4706 62.9209 21.4706ZM83.7342 22.5566C84.3382 23.3881 85.1286 25.2393 86.1093 28.1108C86.2228 28.4395 86.4152 28.9744 86.6809 29.7127H83.9196C83.8493 29.5606 83.7195 29.1782 83.5332 28.5664C82.814 25.7287 82.0509 23.8827 81.2455 23.0301C80.4409 22.1763 79.164 21.75 77.4124 21.75C76.8775 21.75 76.4699 21.7626 76.1847 21.7898C76.1847 24.6617 76.2303 27.3025 76.319 29.7127H73.8108C73.9356 26.9559 73.9975 23.9153 73.9975 20.5898C73.9975 17.4601 73.9356 14.7119 73.8108 12.3473H76.319C76.2303 15.0149 76.1847 17.5667 76.1847 20.0016C76.6204 20.0297 77.03 20.0427 77.4124 20.0427C78.9236 20.0427 80.1781 19.5448 81.1727 18.5482C82.1693 17.5532 82.8929 15.8334 83.3469 13.3874C83.4262 12.9428 83.554 12.5966 83.7342 12.3473H86.0284C85.9291 12.5966 85.7656 13.0807 85.5342 13.8011C84.9655 15.8374 84.3427 17.3507 83.6683 18.3424C82.9922 19.3337 82.1469 20.074 81.134 20.5634V20.7094C82.2612 21.1097 83.1301 21.7252 83.7342 22.5566ZM95.8087 12C97.9243 12 99.7797 12.7892 101.377 14.3679C102.973 15.9466 103.77 18.0769 103.77 20.7637C103.77 23.6351 102.931 25.9318 101.249 27.6517C99.5694 29.3723 97.6266 30.2319 95.4218 30.2319C93.3066 30.2319 91.4496 29.4431 89.8538 27.8652C88.2576 26.2869 87.4603 24.1562 87.4603 21.4706C87.4603 18.5622 88.2995 16.2578 89.9795 14.5542C91.6616 12.8522 93.6023 12 95.8087 12ZM99.6975 26.3646C100.829 25.0222 101.397 23.256 101.397 21.0704C101.397 18.7753 100.794 16.9997 99.5901 15.742C98.3864 14.483 96.9944 13.8541 95.4218 13.8541C93.9639 13.8541 92.6659 14.5167 91.5289 15.8416C90.3879 17.1665 89.8193 18.936 89.8193 21.1493C89.8193 23.4533 90.4274 25.2338 91.6404 26.4911C92.8534 27.7501 94.2438 28.3786 95.8087 28.3786C97.2666 28.3786 98.563 27.7074 99.6975 26.3646ZM116.808 12.3474H119.342C119.209 14.819 119.143 17.5668 119.143 20.59C119.143 23.9056 119.209 26.9467 119.342 29.7128H116.808C116.896 26.6359 116.943 23.8792 116.943 21.4426H108.954C108.954 23.4179 108.996 26.173 109.085 29.7128H106.551C106.677 26.4671 106.738 23.4256 106.738 20.59C106.738 17.6197 106.677 14.8727 106.551 12.3474H109.085C108.978 14.8902 108.926 17.3622 108.926 19.7626H116.968C116.968 17.8328 116.915 15.3612 116.808 12.3474ZM123.312 12.3474H125.845C125.72 14.7746 125.659 17.5224 125.659 20.59C125.659 23.8084 125.72 26.8491 125.845 29.7128H123.312C123.445 26.8312 123.51 23.7905 123.51 20.59C123.51 17.4415 123.445 14.6941 123.312 12.3474ZM142.09 12.3473C141.956 14.7124 141.889 17.4606 141.889 20.5899C141.889 23.9158 141.956 26.956 142.09 29.7132H139.61C139.716 27.6415 139.768 25.169 139.768 22.2968C139.183 22.2789 138.509 22.2691 137.755 22.2691C136.128 22.2691 134.913 22.6885 134.115 23.524C133.314 24.36 132.572 26.1282 131.887 28.8325C131.772 29.3036 131.665 29.5972 131.566 29.7132H128.938C129.047 29.4463 129.215 29.0005 129.447 28.3789C130.326 25.8012 131.043 24.1175 131.6 23.3304C132.156 22.5425 132.958 21.9982 134.007 21.6968V21.5499C131.385 20.9987 130.073 19.4741 130.073 16.9749C130.073 13.837 132.243 12.2672 136.582 12.2672C137.23 12.2672 137.956 12.2806 138.756 12.3063C139.556 12.3347 140.041 12.3473 140.209 12.3473H142.09ZM137.996 20.5354C138.751 20.5354 139.342 20.5277 139.768 20.5094C139.768 18.5088 139.716 16.4058 139.61 14.2015C138.249 14.0855 137.176 14.0273 136.393 14.0273C134.946 14.0273 133.912 14.2433 133.293 14.6749C132.675 15.1061 132.367 15.8107 132.367 16.7886C132.367 19.2866 134.242 20.5354 137.996 20.5354Z" fill="url(#paint0_linear)"/>
<path fill-rule="evenodd" clip-rule="evenodd" d="M124.664 6C123.622 6 122.78 6.84285 122.78 7.8838C122.78 8.92353 123.622 9.76678 124.664 9.76678C125.704 9.76678 126.547 8.92353 126.547 7.8838C126.547 6.84285 125.704 6 124.664 6Z" fill="#4ED0FF"/>
<path fill-rule="evenodd" clip-rule="evenodd" d="M25.6396 0H10.6396V15C10.6396 23.2843 17.3554 30 25.6396 30C33.9239 30 40.6396 23.2843 40.6396 15C40.6396 6.71573 33.9239 0 25.6396 0ZM12.6396 15V2H25.6396C32.8194 2 38.6396 7.8203 38.6396 15C38.6396 22.1797 32.8194 28 25.6396 28C18.4599 28 12.6396 22.1797 12.6396 15Z" fill="url(#paint1_linear)"/>
<path fill-rule="evenodd" clip-rule="evenodd" d="M15.6396 10H0.639648V25C0.639648 33.2843 7.35538 40 15.6396 40C23.9239 40 30.6396 33.2843 30.6396 25C30.6396 16.7157 23.9239 10 15.6396 10ZM2.63965 25V12H15.6396C22.8194 12 28.6396 17.8203 28.6396 25C28.6396 32.1797 22.8194 38 15.6396 38C8.45995 38 2.63965 32.1797 2.63965 25Z" fill="url(#paint2_linear)"/>
<path fill-rule="evenodd" clip-rule="evenodd" d="M25.6396 10H10.6396V25C10.6396 33.2843 17.3554 40 25.6396 40C33.9239 40 40.6396 33.2843 40.6396 25C40.6396 16.7157 33.9239 10 25.6396 10ZM12.6396 25V12H25.6396C32.8194 12 38.6396 17.8203 38.6396 25C38.6396 32.1797 32.8194 38 25.6396 38C18.4599 38 12.6396 32.1797 12.6396 25Z" fill="#009AD4"/>
<defs>
<linearGradient id="paint0_linear" x1="239.675" y1="10.1942" x2="60.6396" y2="10.1942" gradientUnits="userSpaceOnUse">
<stop stop-color="#4ED0FF"/>
<stop offset="1" stop-color="#009AD4"/>
</linearGradient>
<linearGradient id="paint1_linear" x1="55.6396" y1="15" x2="25.6396" y2="-15" gradientUnits="userSpaceOnUse">
<stop stop-color="#4ED0FF"/>
<stop offset="1" stop-color="#009AD4"/>
</linearGradient>
<linearGradient id="paint2_linear" x1="45.6396" y1="25" x2="15.6396" y2="-5" gradientUnits="userSpaceOnUse">
<stop stop-color="#4ED0FF"/>
<stop offset="1" stop-color="#009AD4"/>
</linearGradient>
</defs>
</svg>
