<svg width="16" height="16" viewBox="0 0 16 16" fill="none" xmlns="http://www.w3.org/2000/svg">
<path fill-rule="evenodd" clip-rule="evenodd" d="M14.712 7.34694C14.712 3.30159 11.4104 0 7.34694 0C3.28345 0 0 3.30159 0 7.34694C0 11.3923 3.30159 14.712 7.34694 14.712C8.97959 14.712 10.5034 14.1678 11.7188 13.2608L14.458 16L16 14.458L13.2608 11.7188C14.1678 10.5034 14.712 8.97959 14.712 7.34694ZM7.34694 12.5351C4.49887 12.5351 2.17687 10.2132 2.17687 7.36508C2.17687 4.51701 4.49887 2.19501 7.34694 2.19501C10.2132 2.17687 12.5351 4.49887 12.5351 7.34694C12.5351 10.195 10.2132 12.5351 7.34694 12.5351Z" fill="url(#paint0_linear)"/>
<defs>
<linearGradient id="paint0_linear" x1="6.7666" y1="22.8101" x2="20.3867" y2="9.27686" gradientUnits="userSpaceOnUse">
<stop stop-color="#4ED0FF"/>
<stop offset="1" stop-color="#009AD4"/>
</linearGradient>
</defs>
</svg>
